<svg width="49" height="48" viewBox="0 0 49 48" fill="none" xmlns="http://www.w3.org/2000/svg">
<g opacity="0.9">
<path d="M9.60425 13.4009C7.50091 13.4009 5.80469 11.7071 5.80469 9.64649C5.80469 9.26166 5.97227 8.58364 6.31932 7.66932C6.653 6.79021 7.10828 5.80363 7.5855 4.84932C8.39362 3.23333 9.24052 1.75769 9.60425 1.13617C9.96801 1.75762 10.815 3.23348 11.6232 4.84965C12.1004 5.80392 12.5556 6.79044 12.8892 7.66948C13.2362 8.58373 13.4038 9.26168 13.4038 9.64649C13.4038 11.7065 11.7075 13.4009 9.60425 13.4009Z" stroke="#B01736" stroke-width="2"/>
<path d="M5.80469 15.3573C5.80469 14.5842 6.43139 13.9575 7.20446 13.9575H12.004C12.7771 13.9575 13.4038 14.5842 13.4038 15.3573V27.4061H5.80469V15.3573Z" stroke="#B01736" stroke-width="2"/>
<path d="M20.2031 15.3573C20.2031 14.5842 20.8298 13.9575 21.6029 13.9575H26.4024C27.1755 13.9575 27.8022 14.5842 27.8022 15.3573V27.4061H20.2031V15.3573Z" stroke="#B01736" stroke-width="2"/>
<path d="M27.8022 9.64649V9.64676C27.8028 11.7063 26.1062 13.4009 24.0027 13.4009C21.8993 13.4009 20.2031 11.7071 20.2031 9.64649C20.2031 9.26166 20.3707 8.58364 20.7178 7.66932C21.0514 6.79021 21.5067 5.80363 21.9839 4.84932C22.7921 3.23333 23.639 1.75769 24.0027 1.13617C24.3665 1.75762 25.2135 3.23348 26.0216 4.84965C26.4988 5.80392 26.954 6.79044 27.2877 7.66948C27.6347 8.58373 27.8022 9.26168 27.8022 9.64649Z" stroke="#B01736" stroke-width="2"/>
<path d="M34.6021 15.3573C34.6021 14.5842 35.2287 13.9575 36.0018 13.9575H40.8014C41.5744 13.9575 42.2011 14.5842 42.2011 15.3573V27.4061H34.6021V15.3573Z" stroke="#B01736" stroke-width="2"/>
<path d="M38.4016 13.4009C36.2983 13.4009 34.6021 11.7071 34.6021 9.64649C34.6021 9.26166 34.7696 8.58364 35.1167 7.66932C35.4504 6.79022 35.9056 5.80363 36.3829 4.84932C37.191 3.23334 38.0379 1.75769 38.4016 1.13617C38.7654 1.75762 39.6124 3.23349 40.4206 4.84965C40.8977 5.80392 41.353 6.79044 41.6866 7.66948C42.0336 8.58373 42.2011 9.26168 42.2011 9.64649C42.2011 11.7065 40.5048 13.4009 38.4016 13.4009Z" stroke="#B01736" stroke-width="2"/>
<path d="M0.734375 36.4872L2.81543 38.1011C3.82907 38.887 5.59749 38.887 6.61112 38.1011L8.69282 36.4872C9.15682 36.1289 9.96348 36.1279 10.4275 36.4872L12.5085 38.1011C13.5566 38.9137 15.2599 38.9122 16.3048 38.1011L18.3859 36.4872C18.8493 36.1289 19.6559 36.1279 20.1205 36.4872L22.2022 38.1011C22.7093 38.4943 23.3834 38.7105 24.1 38.7105C24.8172 38.7105 25.4915 38.4938 25.9992 38.1011L28.0809 36.4872C28.5455 36.1279 29.3522 36.1289 29.8156 36.4872L31.8966 38.1011C32.9447 38.9137 34.648 38.9122 35.6929 38.1011L37.774 36.4872C38.2386 36.1279 39.0453 36.1289 39.5086 36.4872L41.5903 38.1011C42.6358 38.9117 44.3386 38.9132 45.386 38.1011C46.4334 37.289 47.4677 36.4872 47.4677 36.4872" stroke="#B01736" stroke-width="2"/>
<rect x="1.00391" y="27.4749" width="45.9954" height="19.5226" rx="3.79954" stroke="#B01736" stroke-width="2"/>
</g>
</svg>
